<svg id="Ebene_1" xmlns="http://www.w3.org/2000/svg" width="180" height="158" viewBox="0 0 180 158"><title>frontendGmbH</title><g id="Page-1"><g id="ipad1-_x2B_-mobile14" transform="translate(9)"><g id="ipad1" transform="translate(0 22)"><g id="Group" fill="#FFF"><path id="Shape" d="M40.238-.217H10.71C4.649-.217-.282 4.713-.282 10.775v44.729c0 6.062 4.931 10.993 10.992 10.993h29.528c6.061 0 10.993-4.931 10.993-10.993V10.775C51.23 4.713 46.299-.217 40.238-.217zM6.558 12.1a5.033 5.033 0 0 1 5.026-5.028h27.779A5.032 5.032 0 0 1 44.39 12.1v42.079a5.033 5.033 0 0 1-5.027 5.028H11.584a5.032 5.032 0 0 1-5.026-5.028V12.1z"/><circle id="Oval" cx="25.5" cy="52.5" r="3.5"/></g></g><g id="mobile14" transform="translate(26)"><g id="Group_1_"><path id="Shape_1_" fill="#FFF" d="M9.727 0C4.362 0 0 4.397 0 9.799v7.254h8.049V9.799c0-.934.754-1.694 1.678-1.694h90.546c.926 0 1.678.76 1.678 1.694v58.752c0 .934-.754 1.694-1.678 1.694H30.242v8.104h20.734v3.545H39.154c-2.22 0-4.024 1.816-4.024 4.053 0 2.233 1.805 4.053 4.024 4.053h31.441c2.22 0 4.024-1.819 4.024-4.053 0-2.236-1.805-4.053-4.024-4.053h-11.57v-3.545h41.249c5.364 0 9.727-4.396 9.727-9.798V9.797C110 4.395 105.635 0 100.273 0H9.727z"/></g></g></g><g id="Line-_x2B_-Line-copy-_x2B_-GMBH" transform="translate(3 147)" fill="#FFF"><path id="Line" stroke="#FFF" stroke-width="3" stroke-linecap="square" d="M59.5 4.5H.492"/><path id="Line-copy" stroke="#FFF" stroke-width="3" stroke-linecap="square" d="M171.5 4.5h-59.008"/><path id="GMBH" d="M73.451 6.138c0 .647-.067 1.19-.202 1.63-.134.44-.366.834-.694 1.18-.715.756-1.629 1.135-2.741 1.135-.346 0-.673-.04-.981-.119a3.655 3.655 0 0 1-1.637-.94c-.31-.319-.533-.659-.67-1.019s-.221-.751-.253-1.172a25.782 25.782 0 0 1-.048-1.815c0-.606.008-1.087.024-1.442s.052-.682.109-.978.15-.573.28-.831c.13-.257.315-.509.557-.755.707-.706 1.579-1.06 2.618-1.06.679 0 1.275.135 1.788.403s.922.638 1.227 1.107.508.995.608 1.579h-1.524c-.082-.359-.216-.67-.403-.93s-.423-.459-.708-.598a2.213 2.213 0 0 0-.988-.209c-.283 0-.555.055-.817.164s-.482.26-.66.451c-.242.27-.402.603-.482 1.002-.08.398-.12 1.097-.12 2.095 0 .528.008.944.024 1.247.016.304.047.578.092.824s.105.441.178.584c.073.145.175.295.308.455.178.188.396.334.653.441.257.106.532.16.824.16.674 0 1.214-.234 1.62-.704.337-.388.506-.909.506-1.565v-.56h-2.126V4.613h3.637v1.525zM85.47 10h-1.518V3.335l-2.29 4.86h-1.121l-2.352-4.86V10h-1.518V.033h1.518l2.912 6.2 2.851-6.2h1.518V10zm10.632-2.816c0 .602-.126 1.113-.379 1.535-.253.421-.608.74-1.066.957-.459.216-.981.324-1.569.324h-4.033V.033h3.883c.602 0 1.131.11 1.589.332.458.221.81.537 1.053.949.243.413.366.895.366 1.446a2.34 2.34 0 0 1-.683 1.678 2.008 2.008 0 0 1-.664.434c.429.164.787.444 1.074.841s.429.887.429 1.471zm-1.668-4.369c0-.296-.066-.553-.201-.769a1.273 1.273 0 0 0-.567-.492 2.036 2.036 0 0 0-.858-.168h-2.234v2.857h2.234c.502 0 .898-.125 1.189-.376.291-.25.437-.6.437-1.052zm.15 4.3c0-.305-.063-.57-.191-.793-.127-.223-.314-.398-.563-.526s-.541-.191-.878-.191h-2.379V8.64h2.379c.342 0 .635-.065.881-.194.246-.131.434-.309.561-.537.127-.229.19-.493.19-.794zM106.412 10h-1.51V5.646h-4.047V10h-1.518V.033h1.518v4.252h4.047V.033h1.51V10z"/></g><path id="FRONTEND" fill="#FFF" d="M16.723 114.852H4.242v7.822h10.652v3.498H4.242V137H.34v-25.629h16.383v3.481zM40.084 137h-4.535l-5.396-10.793h-4.852V137h-3.902v-25.629h9.949c1.57 0 2.962.319 4.175.958s2.145 1.523 2.795 2.654.976 2.423.976 3.876c0 1.758-.472 3.226-1.415 4.403s-2.171 1.978-3.683 2.399L40.084 137zm-4.676-18.105c0-1.254-.396-2.241-1.187-2.962s-1.849-1.081-3.173-1.081H25.3v8.033h5.748c1.312 0 2.367-.357 3.164-1.072s1.196-1.688 1.196-2.918zm27.071 5.291c0 2.027-.038 3.577-.114 4.649s-.29 2.08-.642 3.023-.914 1.819-1.688 2.628c-1.84 1.816-4.096 2.725-6.768 2.725s-4.916-.908-6.732-2.725c-.797-.82-1.371-1.693-1.723-2.619s-.568-1.931-.65-3.015-.123-2.64-.123-4.667c0-1.559.021-2.795.062-3.709s.135-1.752.281-2.514.387-1.474.721-2.136.812-1.31 1.433-1.942c1.816-1.816 4.061-2.725 6.732-2.725s4.928.908 6.768 2.725c.785.82 1.351 1.696 1.696 2.628s.557 1.937.633 3.015.114 2.631.114 4.659zm-3.885 0c0-2.555-.097-4.354-.29-5.396s-.601-1.898-1.222-2.566c-.445-.48-1.011-.864-1.696-1.151s-1.392-.431-2.118-.431c-.738 0-1.45.144-2.136.431s-1.251.671-1.696 1.151c-.621.691-1.028 1.553-1.222 2.584s-.29 2.824-.29 5.379c0 1.359.021 2.446.062 3.261s.12 1.526.237 2.136.258 1.084.422 1.424.428.721.791 1.143c.469.492 1.04.879 1.714 1.16s1.38.422 2.118.422c1.547 0 2.818-.527 3.814-1.582.422-.457.741-.979.958-1.564s.363-1.383.439-2.391.115-2.346.115-4.01zM87.527 137h-3.568l-11.83-18.035V137h-3.902v-25.629h3.568l11.848 18v-18h3.885V137zm22.43-22.148h-7.049V137h-3.885v-22.148h-7.066v-3.48h18v3.48zM130.77 137h-16.383v-25.629h16.383v3.48h-12.48v7.488h10.652v3.463H118.29v7.699h12.48V137zm24.626 0h-3.568l-11.83-18.035V137h-3.902v-25.629h3.568l11.848 18v-18h3.885V137zm24.926-12.99v1.283c0 1.383-.053 2.59-.158 3.621s-.349 2.045-.729 3.041-.952 1.875-1.714 2.637c-1.605 1.605-3.814 2.408-6.627 2.408h-9v-25.629h9c2.812 0 5.021.803 6.627 2.408.762.762 1.333 1.617 1.714 2.566s.624 1.916.729 2.9.158 2.139.158 3.463v1.302zm-3.884 0c0-1.477-.023-2.616-.07-3.419s-.173-1.556-.378-2.259-.513-1.283-.923-1.74c-1.055-1.16-2.508-1.74-4.359-1.74h-4.711v18.65h4.711c1.863 0 3.316-.574 4.359-1.723.609-.668.99-1.576 1.143-2.725s.228-2.829.228-5.044z"/></g></svg>